<svg width="56" height="50" viewBox="0 0 56 50" fill="none" xmlns="http://www.w3.org/2000/svg">
<rect width="56" height="50" rx="10" fill="#F75724"/>
<path fill-rule="evenodd" clip-rule="evenodd" d="M25.3437 10C22.1031 10 18.9952 11.2981 16.7037 13.6089C14.4122 15.9196 13.1248 19.0536 13.1248 22.3214V23.4314C12.4788 23.8076 11.9423 24.3486 11.5693 25.0001C11.1964 25.6516 11 26.3906 11 27.1429C11 27.8951 11.1964 28.6341 11.5693 29.2856C11.9423 29.9371 12.4788 30.4781 13.1248 30.8543V34.1071C13.1248 35.67 13.7405 37.1689 14.8365 38.274C15.9324 39.3791 17.4188 40 18.9687 40H37.0314C38.5812 40 40.0676 39.3791 41.1636 38.274C42.2595 37.1689 42.8752 35.67 42.8752 34.1071V30.8543C43.5212 30.4781 44.0577 29.9371 44.4307 29.2856C44.8036 28.6341 45 27.8951 45 27.1429C45 26.3906 44.8036 25.6516 44.4307 25.0001C44.0577 24.3486 43.5212 23.8076 42.8752 23.4314V22.3214C42.8752 19.0536 41.5878 15.9196 39.2963 13.6089C37.0048 11.2981 33.8969 10 30.6563 10H25.3437ZM40.7501 26.0714H15.2499C14.9681 26.0714 14.6978 26.1843 14.4986 26.3852C14.2993 26.5862 14.1873 26.8587 14.1873 27.1429C14.1873 27.427 14.2993 27.6995 14.4986 27.9005C14.6978 28.1014 14.9681 28.2143 15.2499 28.2143H40.7501C41.0319 28.2143 41.3022 28.1014 41.5014 27.9005C41.7007 27.6995 41.8127 27.427 41.8127 27.1429C41.8127 26.8587 41.7007 26.5862 41.5014 26.3852C41.3022 26.1843 41.0319 26.0714 40.7501 26.0714ZM39.6876 22.8571V22.3214C39.6876 19.9061 38.7361 17.5896 37.0424 15.8817C35.3487 14.1738 33.0515 13.2143 30.6563 13.2143H25.3437C22.9485 13.2143 20.6513 14.1738 18.9576 15.8817C17.2639 17.5896 16.3124 19.9061 16.3124 22.3214V22.8571H39.6876ZM34.3751 31.4286H39.6876V34.1071C39.6876 35.5857 38.4976 36.7857 37.0314 36.7857H18.9687C17.5024 36.7857 16.3124 35.5857 16.3124 34.1071V31.4286H30.125L32.25 33.5714L34.3751 31.4286Z" fill="white"/>
</svg>
