<svg width="56" height="50" viewBox="0 0 56 50" fill="none" xmlns="http://www.w3.org/2000/svg">
<rect width="56" height="50" rx="10" fill="#F75724"/>
<g clip-path="url(#clip0_316_2949)">
<g clip-path="url(#clip1_316_2949)">
<path d="M32.2235 37.4311C32.2235 40.102 30.6633 42.2667 27.9924 42.2667H18.0191C15.3482 42.2667 13.788 40.102 13.788 37.4311M33.2813 31.3867C34.6163 31.3867 35.699 32.7399 35.699 34.4089C35.699 36.0779 34.6163 37.4311 33.2813 37.4311H12.7303C11.3952 37.4311 10.3125 36.0779 10.3125 34.4089C10.3125 32.7399 11.3952 31.3867 12.7303 31.3867" stroke="white" stroke-width="1.875" stroke-miterlimit="10" stroke-linecap="round"/>
<path d="M12.7303 26.853V26.8363C12.7303 22.6808 16.1302 20.5063 20.2858 20.5063H25.7257C29.8813 20.5063 33.2813 22.6974 33.2813 26.853V26.8363M26.1035 14.4619L26.6656 19.2952M33.8857 31.3863H21.4425C21.2824 31.3863 21.1289 31.4499 21.0156 31.5631L18.9885 33.5902C18.9604 33.6183 18.9271 33.6406 18.8904 33.6558C18.8537 33.671 18.8144 33.6788 18.7747 33.6788C18.735 33.6788 18.6956 33.671 18.6589 33.6558C18.6222 33.6406 18.5889 33.6183 18.5609 33.5902L16.5337 31.5631C16.4204 31.4499 16.2669 31.3863 16.1068 31.3863H12.1258C11.6449 31.3863 11.1837 31.1952 10.8436 30.8551C10.5035 30.5151 10.3125 30.0539 10.3125 29.5729C10.3125 29.092 10.5035 28.6308 10.8436 28.2907C11.1837 27.9507 11.6449 27.7596 12.1258 27.7596H33.8857C34.3666 27.7596 34.8278 27.9507 35.1679 28.2907C35.508 28.6308 35.699 29.092 35.699 29.5729C35.699 30.0539 35.508 30.5151 35.1679 30.8551C34.8278 31.1952 34.3666 31.3863 33.8857 31.3863Z" stroke="white" stroke-width="1.875" stroke-miterlimit="10" stroke-linecap="round"/>
<path d="M27.2363 42.2662H37.7619C38.3719 42.2662 38.9593 42.0356 39.4064 41.6207C39.8535 41.2058 40.1273 40.6373 40.1729 40.029L42.8762 14.4619" stroke="white" stroke-width="1.875" stroke-miterlimit="10" stroke-linecap="round"/>
<path d="M35.6992 14.4624L36.9081 9.62685L40.4592 8.41797" stroke="white" stroke-width="1.875" stroke-linecap="round" stroke-linejoin="round"/>
<path d="M24.8184 14.4619H44.1605" stroke="white" stroke-width="1.875" stroke-miterlimit="10" stroke-linecap="round"/>
</g>
</g>
<defs>
<clipPath id="clip0_316_2949">
<rect width="38" height="38" fill="white" transform="translate(9 6)"/>
</clipPath>
<clipPath id="clip1_316_2949">
<rect width="42" height="42" fill="white" transform="translate(9 4)"/>
</clipPath>
</defs>
</svg>
