<svg width="15" height="16" viewBox="0 0 15 16" fill="none" xmlns="http://www.w3.org/2000/svg">
<path d="M10.875 12.125V13.625C10.875 13.725 10.9125 13.8125 10.9875 13.8875C11.0625 13.9625 11.15 14 11.25 14C11.35 14 11.4375 13.9625 11.5125 13.8875C11.5875 13.8125 11.625 13.725 11.625 13.625V12.125H13.125C13.225 12.125 13.3125 12.0875 13.3875 12.0125C13.4625 11.9375 13.5 11.85 13.5 11.75C13.5 11.65 13.4625 11.5625 13.3875 11.4875C13.3125 11.4125 13.225 11.375 13.125 11.375H11.625V9.875C11.625 9.775 11.5875 9.6875 11.5125 9.6125C11.4375 9.5375 11.35 9.5 11.25 9.5C11.15 9.5 11.0625 9.5375 10.9875 9.6125C10.9125 9.6875 10.875 9.775 10.875 9.875V11.375H9.375C9.275 11.375 9.1875 11.4125 9.1125 11.4875C9.0375 11.5625 9 11.65 9 11.75C9 11.85 9.0375 11.9375 9.1125 12.0125C9.1875 12.0875 9.275 12.125 9.375 12.125H10.875ZM1.5 14C1.0875 14 0.7345 13.8532 0.441 13.5597C0.1475 13.2662 0.0005 12.913 0 12.5V2C0 1.5875 0.147 1.2345 0.441 0.941C0.735 0.6475 1.088 0.5005 1.5 0.5H12C12.4125 0.5 12.7657 0.647 13.0597 0.941C13.3537 1.235 13.5005 1.588 13.5 2V5.75C13.5 5.9625 13.428 6.14075 13.284 6.28475C13.14 6.42875 12.962 6.5005 12.75 6.5C12.538 6.4995 12.36 6.4275 12.216 6.284C12.072 6.1405 12 5.9625 12 5.75V2H1.5V12.5H5.25C5.4625 12.5 5.64075 12.572 5.78475 12.716C5.92875 12.86 6.0005 13.038 6 13.25C5.9995 13.462 5.9275 13.6403 5.784 13.7847C5.6405 13.9292 5.4625 14.001 5.25 14H1.5ZM1.5 11.75V12.5V2V6.55625V6.5V11.75ZM3 10.25C3 10.4625 3.072 10.6407 3.216 10.7847C3.36 10.9288 3.538 11.0005 3.75 11H5.30625C5.51875 11 5.697 10.928 5.841 10.784C5.985 10.64 6.05675 10.462 6.05625 10.25C6.05575 10.038 5.984 9.86 5.841 9.716C5.698 9.572 5.51975 9.5 5.30625 9.5H3.75C3.5375 9.5 3.3595 9.572 3.216 9.716C3.0725 9.86 3.0005 10.038 3 10.25ZM3 7.25C3 7.4625 3.072 7.64075 3.216 7.78475C3.36 7.92875 3.538 8.0005 3.75 8H7.5C7.7125 8 7.89075 7.928 8.03475 7.784C8.17875 7.64 8.2505 7.462 8.25 7.25C8.2495 7.038 8.1775 6.86 8.034 6.716C7.8905 6.572 7.7125 6.5 7.5 6.5H3.75C3.5375 6.5 3.3595 6.572 3.216 6.716C3.0725 6.86 3.0005 7.038 3 7.25ZM3 4.25C3 4.4625 3.072 4.64075 3.216 4.78475C3.36 4.92875 3.538 5.0005 3.75 5H9.75C9.9625 5 10.1407 4.928 10.2847 4.784C10.4287 4.64 10.5005 4.462 10.5 4.25C10.4995 4.038 10.4275 3.86 10.284 3.716C10.1405 3.572 9.9625 3.5 9.75 3.5H3.75C3.5375 3.5 3.3595 3.572 3.216 3.716C3.0725 3.86 3.0005 4.038 3 4.25ZM11.25 15.5C10.2125 15.5 9.32825 15.1342 8.59725 14.4028C7.86625 13.6713 7.5005 12.787 7.5 11.75C7.4995 10.713 7.86525 9.82875 8.59725 9.09725C9.32925 8.36575 10.2135 8 11.25 8C12.2865 8 13.171 8.36575 13.9035 9.09725C14.636 9.82875 15.0015 10.713 15 11.75C14.9985 12.787 14.6327 13.6715 13.9027 14.4035C13.1727 15.1355 12.2885 15.501 11.25 15.5Z" fill="white"/>
</svg>
