<svg width="17" height="16" viewBox="0 0 17 16" fill="none" xmlns="http://www.w3.org/2000/svg">
<path d="M6.90625 10.625L9.15625 11.375C9.15625 11.375 14.7812 10.25 15.5312 10.25C16.2812 10.25 16.2812 11 15.5312 11.75C14.7812 12.5 12.1562 14.75 9.90625 14.75C7.65625 14.75 6.15625 13.625 4.65625 13.625H0.90625" stroke="white" stroke-width="1.5" stroke-linecap="round" stroke-linejoin="round"/>
<path d="M0.90625 9.125C1.65625 8.375 3.15625 7.25 4.65625 7.25C6.15625 7.25 9.71875 8.75 10.2812 9.5C10.8438 10.25 9.15625 11.375 9.15625 11.375M5.40625 5V2C5.40625 1.80109 5.48527 1.61032 5.62592 1.46967C5.76657 1.32902 5.95734 1.25 6.15625 1.25H15.1562C15.3552 1.25 15.5459 1.32902 15.6866 1.46967C15.8272 1.61032 15.9062 1.80109 15.9062 2V8" stroke="white" stroke-width="1.5" stroke-linecap="round" stroke-linejoin="round"/>
<path d="M8.78125 1.25H12.5312V4.625H8.78125V1.25Z" stroke="white" stroke-width="1.5" stroke-linecap="round" stroke-linejoin="round"/>
</svg>
