<svg width="14" height="14" viewBox="0 0 14 14" fill="none" xmlns="http://www.w3.org/2000/svg">
<path d="M0.330078 11.3394V13.2502C0.330078 13.3607 0.373977 13.4667 0.452117 13.5448C0.530257 13.623 0.636238 13.6669 0.746745 13.6669H2.66175C2.77204 13.6668 2.87782 13.6231 2.95591 13.5452L10.8292 5.67187L8.32924 3.17187L0.452578 11.0452C0.374382 11.1232 0.330323 11.229 0.330078 11.3394ZM9.36091 2.13937L11.8609 4.63937L13.0776 3.4227C13.2338 3.26643 13.3216 3.0545 13.3216 2.83353C13.3216 2.61256 13.2338 2.40064 13.0776 2.24437L11.7567 0.922699C11.6005 0.766473 11.3885 0.678711 11.1676 0.678711C10.9466 0.678711 10.7347 0.766473 10.5784 0.922699L9.36091 2.13937Z" fill="#484848"/>
</svg>
