<svg width="13" height="17" viewBox="0 0 13 17" fill="none" xmlns="http://www.w3.org/2000/svg">
<path d="M6.5 2.12538C5.18497 2.12538 3.9238 2.64778 2.99393 3.57764C2.06406 4.50751 1.54167 5.76868 1.54167 7.08372C1.54167 9.11097 2.80392 11.0667 4.18942 12.5818C4.89785 13.3536 5.67085 14.0636 6.5 14.704C6.62372 14.609 6.76893 14.4934 6.93562 14.3569C7.60132 13.8102 8.22785 13.2176 8.81058 12.5832C10.1961 11.0667 11.4583 9.11167 11.4583 7.08372C11.4583 5.76868 10.9359 4.50751 10.0061 3.57764C9.0762 2.64778 7.81503 2.12538 6.5 2.12538ZM6.5 16.4436L6.09837 16.1674L6.09625 16.166L6.092 16.1624L6.07783 16.1525L6.02471 16.115L5.83346 15.9754C4.86436 15.2471 3.96408 14.4315 3.14392 13.5388C1.69608 11.9535 0.125 9.65921 0.125 7.08301C0.125 5.39225 0.79665 3.77075 1.99219 2.5752C3.18774 1.37966 4.80924 0.708008 6.5 0.708008C8.19075 0.708008 9.81226 1.37966 11.0078 2.5752C12.2033 3.77075 12.875 5.39225 12.875 7.08301C12.875 9.65921 11.3039 11.9542 9.85608 13.5373C9.03615 14.43 8.1361 15.2457 7.16725 15.974C7.08654 16.0343 7.00507 16.0936 6.92287 16.1518L6.908 16.1617L6.90375 16.1653L6.90233 16.166L6.5 16.4436ZM6.5 5.66705C6.12428 5.66705 5.76394 5.81631 5.49827 6.08198C5.23259 6.34766 5.08333 6.70799 5.08333 7.08372C5.08333 7.45944 5.23259 7.81977 5.49827 8.08545C5.76394 8.35113 6.12428 8.50038 6.5 8.50038C6.87572 8.50038 7.23606 8.35113 7.50173 8.08545C7.76741 7.81977 7.91667 7.45944 7.91667 7.08372C7.91667 6.70799 7.76741 6.34766 7.50173 6.08198C7.23606 5.81631 6.87572 5.66705 6.5 5.66705ZM3.66667 7.08372C3.66667 6.33227 3.96518 5.6116 4.49653 5.08025C5.02788 4.54889 5.74855 4.25038 6.5 4.25038C7.25145 4.25038 7.97212 4.54889 8.50347 5.08025C9.03482 5.6116 9.33333 6.33227 9.33333 7.08372C9.33333 7.83516 9.03482 8.55583 8.50347 9.08718C7.97212 9.61854 7.25145 9.91705 6.5 9.91705C5.74855 9.91705 5.02788 9.61854 4.49653 9.08718C3.96518 8.55583 3.66667 7.83516 3.66667 7.08372Z" fill="black"/>
</svg>
