<svg width="56" height="50" viewBox="0 0 56 50" fill="none" xmlns="http://www.w3.org/2000/svg">
<rect width="56" height="50" rx="10" fill="#F75724"/>
<path d="M28.499 17.5C32.8361 17.5 36.3395 20.8439 36.498 25C36.3395 29.1561 32.8361 32.5 28.499 32.5C24.1617 32.4999 20.6569 29.1559 20.501 25C20.6574 20.8441 24.1618 17.5001 28.499 17.5Z" fill="white" stroke="white"/>
<path d="M28.4459 11.9375C21.2318 11.9375 15.3828 17.7859 15.3828 25C15.3828 32.2135 21.2324 38.0625 28.4459 38.0625C35.6594 38.0625 41.5084 32.2135 41.5084 25C41.5084 17.7859 35.6594 11.9375 28.4459 11.9375ZM28.4453 34.5C23.1983 34.5 18.9447 30.3907 18.9447 25.32C18.9447 25.212 18.9596 25.1069 18.9631 25C18.9596 24.8931 18.9447 24.7874 18.9447 24.68C18.9447 19.6093 23.1989 15.5 28.4453 15.5C33.6917 15.5 37.9453 19.6093 37.9453 24.68C37.9453 24.7874 37.9328 24.8931 37.9299 25C37.9334 25.1069 37.9453 25.212 37.9453 25.32C37.9447 30.3907 33.6923 34.5 28.4453 34.5Z" fill="white"/>
<path d="M11.0671 10.4063C11.2096 9.84756 11.4916 10.3997 11.4916 10.3997C11.4916 10.3997 11.5902 16.1829 12.2314 16.2458C12.8727 16.3087 12.3787 10.2952 13.1375 10.1801C13.8429 10.0678 13.4403 16.3414 14.0828 16.2779C14.7228 16.2102 14.8309 10.4294 14.8309 10.4294C14.8309 10.4294 15.1159 9.87784 15.2566 10.4324C16.9951 17.2665 15.5885 20.0601 15.5885 20.0601C15.5885 20.0601 15.351 20.6473 14.7869 20.6502C14.7341 20.6473 14.7739 36.881 14.7703 39.0636C14.7715 40.1246 11.5047 40.092 11.5065 39.0357C11.5088 36.8531 11.5724 20.6212 11.5213 20.6223C10.9555 20.6223 10.7186 20.0357 10.7186 20.0357C10.7186 20.0357 9.31732 17.2439 11.0671 10.4063ZM42.0246 10.1563C42.7597 10.1545 45.8092 12.3532 45.8128 20.5244C45.8163 23.1375 44.3907 23.1369 44.3931 24.7715C44.3955 26.4031 44.4044 39.3813 44.4044 39.3813C44.4044 39.3813 42.8404 40.4542 41.6779 39.3314L41.6565 10.3885C41.6577 10.3891 41.6535 10.1557 42.0246 10.1563Z" fill="white"/>
</svg>
