<svg width="12" height="13" viewBox="0 0 12 13" fill="none" xmlns="http://www.w3.org/2000/svg">
<path d="M10 13C9.44444 13 8.97222 12.8104 8.58333 12.4312C8.19444 12.0521 8 11.5917 8 11.05C8 10.985 8.01667 10.8333 8.05 10.595L3.36667 7.93C3.18889 8.0925 2.98333 8.2199 2.75 8.3122C2.51667 8.4045 2.26667 8.45043 2 8.45C1.44444 8.45 0.972222 8.26042 0.583333 7.88125C0.194444 7.50208 0 7.04167 0 6.5C0 5.95833 0.194444 5.49792 0.583333 5.11875C0.972222 4.73958 1.44444 4.55 2 4.55C2.26667 4.55 2.51667 4.59615 2.75 4.68845C2.98333 4.78075 3.18889 4.90793 3.36667 5.07L8.05 2.405C8.02778 2.32917 8.014 2.25615 8.00867 2.18595C8.00333 2.11575 8.00044 2.0371 8 1.95C8 1.40833 8.19444 0.947917 8.58333 0.56875C8.97222 0.189583 9.44444 0 10 0C10.5556 0 11.0278 0.189583 11.4167 0.56875C11.8056 0.947917 12 1.40833 12 1.95C12 2.49167 11.8056 2.95208 11.4167 3.33125C11.0278 3.71042 10.5556 3.9 10 3.9C9.73333 3.9 9.48333 3.85385 9.25 3.76155C9.01667 3.66925 8.81111 3.54207 8.63333 3.38L3.95 6.045C3.97222 6.12083 3.98622 6.19407 3.992 6.2647C3.99778 6.33533 4.00044 6.41377 4 6.5C3.99956 6.58623 3.99689 6.66488 3.992 6.73595C3.98711 6.80702 3.97311 6.88003 3.95 6.955L8.63333 9.62C8.81111 9.4575 9.01667 9.33032 9.25 9.23845C9.48333 9.14658 9.73333 9.10043 10 9.1C10.5556 9.1 11.0278 9.28958 11.4167 9.66875C11.8056 10.0479 12 10.5083 12 11.05C12 11.5917 11.8056 12.0521 11.4167 12.4312C11.0278 12.8104 10.5556 13 10 13ZM10 11.7C10.1889 11.7 10.3473 11.6378 10.4753 11.5134C10.6033 11.3891 10.6671 11.2346 10.6667 11.05C10.6662 10.8654 10.6022 10.7111 10.4747 10.5872C10.3471 10.4633 10.1889 10.4009 10 10.4C9.81111 10.3991 9.65289 10.4615 9.52533 10.5872C9.39778 10.7129 9.33378 10.8671 9.33333 11.05C9.33289 11.2329 9.39689 11.3873 9.52533 11.5134C9.65378 11.6395 9.812 11.7017 10 11.7ZM2 7.15C2.18889 7.15 2.34733 7.0876 2.47533 6.9628C2.60333 6.838 2.66711 6.68373 2.66667 6.5C2.66622 6.31627 2.60222 6.162 2.47467 6.0372C2.34711 5.9124 2.18889 5.85 2 5.85C1.81111 5.85 1.65289 5.9124 1.52533 6.0372C1.39778 6.162 1.33378 6.31627 1.33333 6.5C1.33289 6.68373 1.39689 6.83822 1.52533 6.96345C1.65378 7.08868 1.812 7.15087 2 7.15ZM10 2.6C10.1889 2.6 10.3473 2.5376 10.4753 2.4128C10.6033 2.288 10.6671 2.13373 10.6667 1.95C10.6662 1.76627 10.6022 1.612 10.4747 1.4872C10.3471 1.3624 10.1889 1.3 10 1.3C9.81111 1.3 9.65289 1.3624 9.52533 1.4872C9.39778 1.612 9.33378 1.76627 9.33333 1.95C9.33289 2.13373 9.39689 2.28822 9.52533 2.41345C9.65378 2.53868 9.812 2.60087 10 2.6Z" fill="black"/>
</svg>
