<svg width="56" height="50" viewBox="0 0 56 50" fill="none" xmlns="http://www.w3.org/2000/svg">
<rect width="56" height="50" rx="10" fill="#F75724"/>
<g clip-path="url(#clip0_316_2964)">
<path d="M13 21.2496V19.3746C12.9999 18.5544 13.1792 17.7441 13.5253 17.0005C13.8715 16.2569 14.376 15.598 15.0036 15.07C15.6312 14.5419 16.3667 14.1575 17.1585 13.9437C17.9504 13.7298 18.7794 13.6918 19.5875 13.8321C20.1135 12.0073 21.2185 10.4031 22.7359 9.26126C24.2534 8.11943 26.1009 7.50195 28 7.50195C29.8991 7.50195 31.7466 8.11943 33.2641 9.26126C34.7815 10.4031 35.8865 12.0073 36.4125 13.8321C37.2206 13.6918 38.0496 13.7298 38.8415 13.9437C39.6333 14.1575 40.3688 14.5419 40.9964 15.07C41.624 15.598 42.1285 16.2569 42.4747 17.0005C42.8208 17.7441 43.0001 18.5544 43 19.3746V21.2496C43.0005 25.0118 41.5873 28.6369 39.0404 31.406C36.4936 34.1751 32.9991 35.8861 29.25 36.1996V39.9996H26.75V36.1996C23.0009 35.8861 19.5064 34.1751 16.9596 31.406C14.4127 28.6369 12.9995 25.0118 13 21.2496ZM24.215 19.9971H31.785C31.6739 19.0065 31.8283 18.0042 32.2325 17.093C32.6367 16.1818 33.2761 15.3946 34.085 14.8121C33.7612 13.4415 32.9842 12.2204 31.8798 11.3465C30.7754 10.4726 29.4083 9.99715 28 9.99715C26.5917 9.99715 25.2246 10.4726 24.1202 11.3465C23.0158 12.2204 22.2388 13.4415 21.915 14.8121C22.7243 15.3948 23.3639 16.1824 23.7681 17.0941C24.1724 18.0058 24.3266 19.0086 24.215 19.9996V19.9971ZM21.3675 19.9971C21.4602 19.5856 21.4591 19.1585 21.3644 18.7474C21.2697 18.3363 21.0836 17.9518 20.8202 17.6224C20.5567 17.2929 20.2225 17.027 19.8422 16.8442C19.462 16.6615 19.0456 16.5666 18.6237 16.5666C18.2019 16.5666 17.7855 16.6615 17.4053 16.8442C17.025 17.027 16.6908 17.2929 16.4273 17.6224C16.1639 17.9518 15.9778 18.3363 15.8831 18.7474C15.7884 19.1585 15.7873 19.5856 15.88 19.9971H21.3675ZM34.6325 19.9971H40.1175C40.2102 19.5856 40.2091 19.1585 40.1144 18.7474C40.0196 18.3363 39.8336 17.9518 39.5702 17.6224C39.3067 17.2929 38.9725 17.027 38.5923 16.8442C38.212 16.6615 37.7956 16.5666 37.3738 16.5666C36.9519 16.5666 36.5355 16.6615 36.1553 16.8442C35.775 17.027 35.4408 17.2929 35.1773 17.6224C34.9139 17.9518 34.7278 18.3363 34.6331 18.7474C34.5384 19.1585 34.5373 19.5856 34.63 19.9971H34.6325ZM28 33.7496C31.0992 33.7496 34.0879 32.5982 36.3861 30.519C38.6843 28.4397 40.1282 25.5808 40.4375 22.4971H15.5625C15.8718 25.5808 17.3157 28.4397 19.6139 30.519C21.9121 32.5982 24.9008 33.7496 28 33.7496ZM23 40.0021H33C33.3315 40.0021 33.6495 40.1338 33.8839 40.3682C34.1183 40.6026 34.25 40.9206 34.25 41.2521C34.25 41.5836 34.1183 41.9016 33.8839 42.136C33.6495 42.3704 33.3315 42.5021 33 42.5021H23C22.6685 42.5021 22.3505 42.3704 22.1161 42.136C21.8817 41.9016 21.75 41.5836 21.75 41.2521C21.75 40.9206 21.8817 40.6026 22.1161 40.3682C22.3505 40.1338 22.6685 40.0021 23 40.0021Z" fill="white"/>
</g>
<defs>
<clipPath id="clip0_316_2964">
<rect width="38" height="38" fill="white" transform="translate(9 6)"/>
</clipPath>
</defs>
</svg>
